# xmcd
#
# Track frame offsets: 
#        150
#        15487
#        31189
#        45194
#        64192
#        77321
#        100796
#        114900
#        126177
#        144361
#        159397
#        173779
#        187191
#
# Disc length: 2773 seconds
#
# Revision: 2
# Processed by: cddbd v1.5.2PL0 Copyright (c) Steve Scherf et al.
# Submitted via: ExactAudioCopyFreeDBPlugin 1.0
#
DISCID=940ad30d
DTITLE=George Thorogood - 2120 South Michigan Ave
DYEAR=2011
DGENRE=Blues
TTITLE0=Going Back
TTITLE1=Hi-Heel Sneakers (Featuring Buddy Guy)
TTITLE2=Seventh Son
TTITLE3=Spoonful
TTITLE4=Let It Rock
TTITLE5=Two Trains Running (Still A Fool)
TTITLE6=Bo Diddley
TTITLE7=Mama Talk To Your Daughter
TTITLE8=Help Me
TTITLE9=My Babe (Featuring Charlie Musselwhite)
TTITLE10=Willie Dixon's Gone
TTITLE11=Chicago Bound
TTITLE12=2120 South Michigan Ave (Featuring Charlie Musselwaite)
EXTD=
EXTT0=
EXTT1=
EXTT2=
EXTT3=
EXTT4=
EXTT5=
EXTT6=
EXTT7=
EXTT8=
EXTT9=
EXTT10=
EXTT11=
EXTT12=
PLAYORDER=
